<?xml version="1.0" encoding="utf-8"?>
<!-- Generator: Adobe Illustrator 21.1.0, SVG Export Plug-In . SVG Version: 6.00 Build 0)  -->
<svg version="1.1" id="Layer_1" xmlns="http://www.w3.org/2000/svg" xmlns:xlink="http://www.w3.org/1999/xlink" x="0px" y="0px"
	 viewBox="0 0 72 72" style="enable-background:new 0 0 72 72;" xml:space="preserve">
<style type="text/css">
	.Arched_x0020_Green{fill:url(#SVGID_1_);stroke:#FFFFFF;stroke-width:0.25;stroke-miterlimit:1;}
	.st0{fill:#231F20;}
	.st1{fill:#FFFFFF;stroke:#FFFFFF;}
	.st2{fill:none;stroke:#FAC112;stroke-width:3;}
	.st3{fill:none;stroke:#66BBFF;stroke-width:3;}
</style>
<linearGradient id="SVGID_1_" gradientUnits="userSpaceOnUse" x1="-271" y1="430" x2="-270.2929" y2="429.2929">
	<stop  offset="0" style="stop-color:#1EAB4B"/>
	<stop  offset="0.9831" style="stop-color:#19361A"/>
</linearGradient>
<path class="st0" d="M54.3,36.3c-3.4-0.3-10.9-0.1-18,0.4c0.1,6.9-0.3,20.1-0.3,20.1s-0.6,1.5-0.8,2c-0.6,1.6-1.1,0.8-1.6-1.1
	c-0.2-1-0.3-5.9-0.2-8.3c0.2-5.3,0.2-6.8,0.2-12.5c-7,0.6-11.8,1.1-14,1.6c-3.1,0.7-3.7,0.4-5.6-0.7c-1.6-0.9-1.7-1.5-0.2-1.6
	c0.6-0.1,2.5,0,5.6-0.3c5.4-0.5,10.2-1,14.3-1.4c0-2,0-4.4-0.1-7.4c0-2.7-0.2-6-1-7.9c-3.3,0.4-5.6,0.4-6.8-0.3
	c-1.2-0.7-1.2-1,0.2-1.2c2.8-0.3,6.2-0.9,8.5-1.5c5.5-1.5,7.8-1.5,9.8-0.7c0.8,0.4,0.8,1.1-0.3,1.5c-1.6,0.5-4.2,1.4-10.4,2.1
	c3.9,1.5,3.9,1.8,3.4,4.1c-0.4,1.5-0.7,5.7-0.7,11.1c5.2-0.5,9.8-1,11.3-1.3c3.4-0.6,6.4-0.6,8.7,0.8C58.2,35.1,56.9,36.6,54.3,36.3
	"/>
<path class="st0" d="M25.4,30.8c-0.9-1.4-1.5-2.7-2.3-4.8c-0.5-1.2-0.3-1.7,1.1-1.1c3.4,1.4,4.1,3.1,4,4.6
	C28.1,31.9,26.5,32.4,25.4,30.8"/>
<path class="st0" d="M45.9,26.6c-0.8,0.8-3.3,3.1-5.6,4.6c-1.1,0.8-1.4,0.3-0.6-0.7c3.4-4.5,3.9-6.1,3.7-7.6c-0.2-1,0.8-1.6,2.7-0.5
	c2.6,1.5,2.6,1.8,1.6,2.4C47.2,25.3,46.7,25.7,45.9,26.6"/>
<g>
	<path class="st1" d="M54.3,36.3c-3.4-0.3-10.9-0.1-18,0.4c0.1,6.9-0.3,20.1-0.3,20.1s-0.6,1.5-0.8,2c-0.6,1.6-1.1,0.8-1.6-1.1
		c-0.2-1-0.3-5.9-0.2-8.3c0.2-5.3,0.2-6.8,0.2-12.5c-7,0.6-11.8,1.1-14,1.6c-3.1,0.7-3.7,0.4-5.6-0.7c-1.6-0.9-1.7-1.5-0.2-1.6
		c0.6-0.1,2.5,0,5.6-0.3c5.4-0.5,10.2-1,14.3-1.4c0-2,0-4.4-0.1-7.4c0-2.7-0.2-6-1-7.9c-3.3,0.4-5.6,0.4-6.8-0.3
		c-1.2-0.7-1.2-1,0.2-1.2c2.8-0.3,6.2-0.9,8.5-1.5c5.5-1.5,7.8-1.5,9.8-0.7c0.8,0.4,0.8,1.1-0.3,1.5c-1.6,0.5-4.2,1.4-10.4,2.1
		c3.9,1.5,3.9,1.8,3.4,4.1c-0.4,1.5-0.7,5.7-0.7,11.1c5.2-0.5,9.8-1,11.3-1.3c3.4-0.6,6.4-0.6,8.7,0.8
		C58.2,35.1,56.9,36.6,54.3,36.3z"/>
	<path class="st1" d="M25.4,30.8c-0.9-1.4-1.5-2.7-2.3-4.8c-0.5-1.2-0.3-1.7,1.1-1.1c3.4,1.4,4.1,3.1,4,4.6
		C28.1,31.9,26.5,32.4,25.4,30.8z"/>
	<path class="st1" d="M45.9,26.6c-0.8,0.8-3.3,3.1-5.6,4.6c-1.1,0.8-1.4,0.3-0.6-0.7c3.4-4.5,3.9-6.1,3.7-7.6
		c-0.2-1,0.8-1.6,2.7-0.5c2.6,1.5,2.6,1.8,1.6,2.4C47.2,25.3,46.7,25.7,45.9,26.6z"/>
</g>
<line class="st2" x1="6.3" y1="50.4" x2="6.3" y2="23.1"/>
<line class="st2" x1="37.3" y1="3.3" x2="61.4" y2="17.3"/>
<g>
	<line class="st3" x1="61.4" y1="21.3" x2="61.4" y2="51"/>
	<line class="st3" x1="66.8" y1="21.3" x2="66.8" y2="51"/>
</g>
<g>
	<line class="st3" x1="9.1" y1="20.4" x2="33.8" y2="6.1"/>
	<line class="st3" x1="6.5" y1="15.8" x2="31.3" y2="1.5"/>
</g>
<g>
	<line class="st3" x1="6.5" y1="56.2" x2="31.3" y2="70.5"/>
	<line class="st3" x1="9.2" y1="51.7" x2="34" y2="66"/>
</g>
<line class="st2" x1="37.3" y1="68.9" x2="61.4" y2="54.9"/>
</svg>
